<?xml version="1.0" encoding="utf-8"?>
<!-- Generator: Adobe Illustrator 22.1.0, SVG Export Plug-In . SVG Version: 6.00 Build 0)  -->
<svg version="1.1" id="Logo" xmlns="http://www.w3.org/2000/svg" xmlns:xlink="http://www.w3.org/1999/xlink" x="0px" y="0px"
	 viewBox="0 0 512 512" style="enable-background:new 0 0 512 512;" xml:space="preserve">
<style type="text/css">
	.st0{fill:#FFFFFF;}
</style>
<g>
	<path class="st0" d="M256,167.5c28.8,0,32.3,0.1,43.6,0.6c10.5,0.5,16.2,2.2,20.1,3.7c5,2,8.6,4.3,12.4,8.1
		c3.8,3.8,6.1,7.4,8.1,12.4c1.5,3.8,3.2,9.5,3.7,20.1c0.5,11.4,0.6,14.8,0.6,43.6s-0.1,32.3-0.6,43.6c-0.5,10.5-2.2,16.2-3.7,20.1
		c-2,5-4.3,8.6-8.1,12.4c-3.8,3.8-7.4,6.1-12.4,8.1c-3.8,1.5-9.5,3.2-20.1,3.7c-11.4,0.5-14.8,0.6-43.6,0.6s-32.3-0.1-43.6-0.6
		c-10.5-0.5-16.2-2.2-20.1-3.7c-5-2-8.6-4.3-12.4-8.1c-3.8-3.8-6.1-7.4-8.1-12.4c-1.5-3.8-3.2-9.5-3.7-20.1
		c-0.5-11.4-0.6-14.8-0.6-43.6s0.1-32.3,0.6-43.6c0.5-10.5,2.2-16.2,3.7-20.1c2-5,4.3-8.6,8.1-12.4c3.8-3.8,7.4-6.1,12.4-8.1
		c3.8-1.5,9.5-3.2,20.1-3.7C223.7,167.6,227.2,167.5,256,167.5 M256,148c-29.3,0-33,0.1-44.5,0.6c-11.5,0.5-19.3,2.4-26.2,5
		c-7.1,2.8-13.1,6.5-19.1,12.5c-6,6-9.7,12-12.5,19.1c-2.7,6.9-4.5,14.7-5,26.2c-0.5,11.5-0.6,15.2-0.6,44.5c0,29.3,0.1,33,0.6,44.5
		c0.5,11.5,2.4,19.3,5,26.2c2.8,7.1,6.5,13.1,12.5,19.1c6,6,12,9.7,19.1,12.5c6.9,2.7,14.7,4.5,26.2,5c11.5,0.5,15.2,0.6,44.5,0.6
		s33-0.1,44.5-0.6c11.5-0.5,19.3-2.4,26.2-5c7.1-2.8,13.1-6.5,19.1-12.5c6-6,9.7-12,12.5-19.1c2.7-6.9,4.5-14.7,5-26.2
		c0.5-11.5,0.6-15.2,0.6-44.5s-0.1-33-0.6-44.5c-0.5-11.5-2.4-19.3-5-26.2c-2.8-7.1-6.5-13.1-12.5-19.1c-6-6-12-9.7-19.1-12.5
		c-6.9-2.7-14.7-4.5-26.2-5C289,148.1,285.3,148,256,148L256,148z"/>
	<path class="st0" d="M256,200.5c-30.6,0-55.5,24.8-55.5,55.5s24.8,55.5,55.5,55.5s55.5-24.8,55.5-55.5S286.6,200.5,256,200.5z
		 M256,292c-19.9,0-36-16.1-36-36c0-19.9,16.1-36,36-36c19.9,0,36,16.1,36,36C292,275.9,275.9,292,256,292z"/>
	<circle class="st0" cx="313.7" cy="198.3" r="13"/>
</g>
</svg>
