<svg id="Ebene_1" data-name="Ebene 1" xmlns="http://www.w3.org/2000/svg" xmlns:xlink="http://www.w3.org/1999/xlink" viewBox="0 0 50 50"><defs><style>.cls-1{fill:none;}.cls-2{clip-path:url(#clip-path);}.cls-3{fill:#fff;}</style><clipPath id="clip-path"><rect class="cls-1" x="11.98" y="15.82" width="26.05" height="18.35"/></clipPath></defs><title>dt_assets</title><g class="cls-2"><path class="cls-3" d="M22.34,28.87V21.13L29.14,25ZM37.48,18.69a3.27,3.27,0,0,0-2.3-2.32c-2-.55-10.18-.55-10.18-.55s-8.15,0-10.18.55a3.27,3.27,0,0,0-2.3,2.32A34.57,34.57,0,0,0,12,25a34.57,34.57,0,0,0,.54,6.31,3.27,3.27,0,0,0,2.3,2.32c2,.55,10.18.55,10.18.55s8.15,0,10.18-.55a3.27,3.27,0,0,0,2.3-2.32A34.57,34.57,0,0,0,38,25a34.57,34.57,0,0,0-.54-6.31"/></g></svg>