<svg id="Ebene_1" data-name="Ebene 1" xmlns="http://www.w3.org/2000/svg" xmlns:xlink="http://www.w3.org/1999/xlink" viewBox="0 0 50 50"><defs><style>.cls-1{fill:none;}.cls-2{clip-path:url(#clip-path);}.cls-3{fill:#fff;}</style><clipPath id="clip-path"><rect class="cls-1" x="3.36" y="15.49" width="43.29" height="19.03"/></clipPath></defs><title>dt_assets</title><g class="cls-2"><path class="cls-3" d="M5.45,33.5a.18.18,0,0,0,.17-.18l.49-3.85-.48-3.93a.19.19,0,0,0-.37,0l-.42,3.93.42,3.85a.2.2,0,0,0,.19.18"/><path class="cls-3" d="M3.85,32A.18.18,0,0,0,4,31.86l.37-2.39L4,27a.19.19,0,0,0-.17-.17.18.18,0,0,0-.18.17l-.31,2.43.31,2.39a.18.18,0,0,0,.18.17"/><path class="cls-3" d="M7.36,24.8a.22.22,0,0,0-.43,0l-.41,4.67L6.93,34a.22.22,0,1,0,.43,0l.46-4.5Z"/><path class="cls-3" d="M8.86,34.37a.26.26,0,0,0,.25-.26l.44-4.64-.44-4.79a.25.25,0,1,0-.5,0l-.39,4.79.39,4.64a.26.26,0,0,0,.25.26"/><path class="cls-3" d="M10.59,34.44a.3.3,0,0,0,.29-.29h0l.41-4.68L10.88,25a.3.3,0,0,0-.29-.29.3.3,0,0,0-.29.29l-.36,4.45.36,4.68a.29.29,0,0,0,.29.29"/><path class="cls-3" d="M13,29.48l-.38-7.24a.33.33,0,0,0-.33-.33.34.34,0,0,0-.33.33l-.34,7.24L12,34.15a.34.34,0,0,0,.33.33.33.33,0,0,0,.33-.33h0Z"/><path class="cls-3" d="M14.09,34.49a.37.37,0,0,0,.36-.37h0l.36-4.65-.36-8.9a.37.37,0,1,0-.73,0l-.31,8.9.31,4.65a.37.37,0,0,0,.37.36"/><path class="cls-3" d="M15.86,19.43a.41.41,0,0,0-.4.41l-.3,9.64.3,4.6a.4.4,0,0,0,.8,0h0l.33-4.6-.33-9.64a.41.41,0,0,0-.4-.41"/><path class="cls-3" d="M17.64,34.49a.44.44,0,0,0,.44-.44h0l.31-4.57-.31-10a.45.45,0,0,0-.44-.44.44.44,0,0,0-.43.44l-.28,10,.28,4.57a.43.43,0,0,0,.43.44"/><path class="cls-3" d="M19.44,34.49a.49.49,0,0,0,.48-.48h0l.28-4.53-.28-9.71a.48.48,0,0,0-1,0l-.24,9.71L19,34a.48.48,0,0,0,.47.48"/><path class="cls-3" d="M22,29.48l-.25-9.36a.52.52,0,0,0-.52-.51.51.51,0,0,0-.51.51l-.23,9.36.23,4.5a.51.51,0,0,0,.51.51.52.52,0,0,0,.52-.51h0Z"/><path class="cls-3" d="M23.08,34.5a.56.56,0,0,0,.55-.55h0l.23-4.47-.23-11.13a.55.55,0,0,0-.55-.55.55.55,0,0,0-.55.55l-.21,11.13L22.53,34a.55.55,0,0,0,.55.55"/><path class="cls-3" d="M24.9,16.75a.6.6,0,0,0-.59.59l-.24,12.14.24,4.41a.59.59,0,1,0,1.17,0h0l.26-4.41-.26-12.14a.59.59,0,0,0-.58-.59"/><path class="cls-3" d="M26.56,34.51H41.32a5.39,5.39,0,0,0,0-10.78,5.23,5.23,0,0,0-2.06.42,9.44,9.44,0,0,0-9.36-8.66,9.26,9.26,0,0,0-3.4.64c-.4.16-.51.32-.51.63V33.87a.65.65,0,0,0,.57.64"/></g></svg>