<svg id="Ebene_1" data-name="Ebene 1" xmlns="http://www.w3.org/2000/svg" xmlns:xlink="http://www.w3.org/1999/xlink" viewBox="0 0 50 50"><defs><style>.cls-1{fill:none;}.cls-2{clip-path:url(#clip-path);}.cls-3{fill:#fff;}</style><clipPath id="clip-path"><rect class="cls-1" x="0.14" y="16.95" width="49.15" height="16.09"/></clipPath></defs><title>dt_assets</title><g class="cls-2"><path class="cls-3" d="M32.38,23c-2.05,0-3.1,1.61-3.1,4s1.13,4,3.1,4c2.22,0,3.06-2,3.06-4s-1-4-3.06-4m-5.45-6h2.44v5.84h0A4,4,0,0,1,32.7,21c3.48,0,5.17,2.74,5.17,6.08,0,3.07-1.49,6-4.76,6-1.5,0-3.1-.38-3.83-1.88h0v1.57H26.93Z"/><path class="cls-3" d="M46.86,25.13A2.37,2.37,0,0,0,44.33,23c-1.26,0-3,.68-3,4.16,0,1.9.81,3.91,2.93,3.91a2.67,2.67,0,0,0,2.63-2.61h2.43c-.45,3-2.22,4.6-5.06,4.6-3.47,0-5.37-2.54-5.37-5.9S40.68,21,44.31,21c2.57,0,4.75,1.33,5,4.13Z"/></g><polygon class="cls-3" points="8.67 16.95 0.14 32.7 18.41 32.7 26.95 16.95 8.67 16.95"/></svg>