<?xml version="1.0" encoding="utf-8"?>
<!-- Generator: Adobe Illustrator 22.1.0, SVG Export Plug-In . SVG Version: 6.00 Build 0)  -->
<svg version="1.1" id="Logo" xmlns="http://www.w3.org/2000/svg" xmlns:xlink="http://www.w3.org/1999/xlink" x="0px" y="0px"
	 viewBox="0 0 512 512" style="enable-background:new 0 0 512 512;" xml:space="preserve">
<style type="text/css">
	.st0{fill:#FFFFFF;}
</style>
<g>
	<path class="st0" d="M256,152.7c33.6,0,37.6,0.1,50.9,0.7c12.3,0.6,19,2.6,23.4,4.3c5.9,2.3,10.1,5,14.5,9.4
		c4.4,4.4,7.1,8.6,9.4,14.5c1.7,4.4,3.8,11.1,4.3,23.4c0.6,13.3,0.7,17.3,0.7,50.9s-0.1,37.6-0.7,50.9c-0.6,12.3-2.6,19-4.3,23.4
		c-2.3,5.9-5,10.1-9.4,14.5c-4.4,4.4-8.6,7.1-14.5,9.4c-4.4,1.7-11.1,3.8-23.4,4.3c-13.3,0.6-17.3,0.7-50.9,0.7s-37.6-0.1-50.9-0.7
		c-12.3-0.6-19-2.6-23.4-4.3c-5.9-2.3-10.1-5-14.5-9.4c-4.4-4.4-7.1-8.6-9.4-14.5c-1.7-4.4-3.8-11.1-4.3-23.4
		c-0.6-13.3-0.7-17.3-0.7-50.9s0.1-37.6,0.7-50.9c0.6-12.3,2.6-19,4.3-23.4c2.3-5.9,5-10.1,9.4-14.5c4.4-4.4,8.6-7.1,14.5-9.4
		c4.4-1.7,11.1-3.8,23.4-4.3C218.4,152.8,222.4,152.7,256,152.7 M256,130c-34.2,0-38.5,0.1-51.9,0.8c-13.4,0.6-22.6,2.7-30.6,5.9
		c-8.3,3.2-15.3,7.5-22.3,14.5c-7,7-11.3,14-14.5,22.3c-3.1,8-5.2,17.2-5.9,30.6c-0.6,13.4-0.8,17.7-0.8,51.9
		c0,34.2,0.1,38.5,0.8,51.9c0.6,13.4,2.7,22.6,5.9,30.6c3.2,8.3,7.5,15.3,14.5,22.3c7,7,14,11.3,22.3,14.5c8,3.1,17.2,5.2,30.6,5.9
		c13.4,0.6,17.7,0.8,51.9,0.8s38.5-0.1,51.9-0.8c13.4-0.6,22.6-2.7,30.6-5.9c8.3-3.2,15.3-7.5,22.3-14.5c7-7,11.3-14,14.5-22.3
		c3.1-8,5.2-17.2,5.9-30.6c0.6-13.4,0.8-17.7,0.8-51.9s-0.1-38.5-0.8-51.9c-0.6-13.4-2.7-22.6-5.9-30.6c-3.2-8.3-7.5-15.3-14.5-22.3
		c-7-7-14-11.3-22.3-14.5c-8-3.1-17.2-5.2-30.6-5.9C294.5,130.1,290.2,130,256,130L256,130z"/>
	<path class="st0" d="M256,191.3c-35.7,0-64.7,29-64.7,64.7s29,64.7,64.7,64.7s64.7-29,64.7-64.7S291.7,191.3,256,191.3z M256,298
		c-23.2,0-42-18.8-42-42s18.8-42,42-42c23.2,0,42,18.8,42,42S279.2,298,256,298z"/>
	<circle class="st0" cx="323.3" cy="188.7" r="15.1"/>
</g>
</svg>
